<svg version="1.1" preserveAspectRatio="none" xmlns="http://www.w3.org/2000/svg" width="500" height="500" viewBox="0 0 500 500"><rect width="100%" height="100%" fill="#121212" fill-opacity="1"/><svg viewBox="-33.2865 -69.7203 399.9064 350.4235" width="333" height="291.79584397749073" x="83.5px" y="104.1021px" xmlns="http://www.w3.org/2000/svg" xmlns:xlink="http://www.w3.org/1999/xlink" preserveAspectRatio="none"><defs></defs><style>.companyName {fill:#E3E3E3;fill-opacity:1;}.icon1 {fill:#F1EC40;fill-opacity:1;}.icon2 {fill:#555555;fill-opacity:1;}.icon3 {fill:#AAAAAA;fill-opacity:1;}.icon3-str {stroke:#AAAAAA;stroke-opacity:1;}.text {fill:#E3E3E3;fill-opacity:1;}</style><g opacity="1" transform="rotate(0 19.8313 262.7032)">
<svg width="293.6708" height="18" x="19.8313" y="262.7032" version="1.1" preserveAspectRatio="none" viewBox="3.24 -28 591.24 36.239999999999995">
  <g transform="matrix(1 0 0 1 0 0)" class="text"><path id="id-6izo4zJp27" d="M6.24-9.44L6.24 0L3.24 0L3.24-26.48L15.16-26.48Q19.36-26.48 21.84-24.16L21.84-24.16Q24.28-21.84 24.28-17.96L24.28-17.96Q24.28-14.04 21.82-11.74Q19.36-9.44 15.16-9.44L15.16-9.44L6.24-9.44ZM14.96-23.64L6.24-23.64L6.24-12.24L14.96-12.24Q18.08-12.24 19.68-13.76Q21.28-15.28 21.28-17.94Q21.28-20.60 19.68-22.12Q18.08-23.64 14.96-23.64L14.96-23.64Z M40.16-20.32L40.16-20.32Q44.64-20.32 47.44-17.32L47.44-17.32Q50.08-14.44 50.08-10L50.08-10Q50.08-5.56 47.44-2.68L47.44-2.68Q44.64 0.32 40.16 0.32L40.16 0.32Q35.68 0.32 32.88-2.68L32.88-2.68Q30.24-5.56 30.24-10L30.24-10Q30.24-14.44 32.88-17.32L32.88-17.32Q35.68-20.32 40.16-20.32ZM40.16-2.40L40.16-2.40Q43.40-2.40 45.28-4.64L45.28-4.64Q47.08-6.76 47.08-10L47.08-10Q47.08-13.24 45.28-15.36L45.28-15.36Q43.40-17.60 40.16-17.60L40.16-17.60Q36.92-17.60 35.04-15.36L35.04-15.36Q33.24-13.24 33.24-10L33.24-10Q33.24-6.76 35.04-4.64L35.04-4.64Q36.92-2.40 40.16-2.40Z M62.84 0L59.84 0L59.84-17.36L55.76-17.36L55.76-20L59.84-20L59.84-27.16L62.84-27.16L62.84-20L67.44-20L67.44-17.36L62.84-17.36L62.84 0Z M83.24-2.40L83.24-2.40Q87.28-2.40 89.04-5.76L89.04-5.76L92.32-5.76Q91.28-3.04 89.02-1.36Q86.76 0.32 83.20 0.32L83.20 0.32Q78.68 0.32 75.84-2.68L75.84-2.68Q73.08-5.60 73.08-10L73.08-10Q73.08-14.44 75.72-17.32L75.72-17.32Q78.52-20.32 83-20.32L83-20.32Q87.48-20.32 90.28-17.32L90.28-17.32Q92.92-14.44 92.92-10L92.92-10L92.92-8.80L76.16-8.80Q76.48-6.04 78.36-4.24L78.36-4.24Q80.28-2.40 83.24-2.40ZM83-17.60L83-17.60Q80.24-17.60 78.36-15.88L78.36-15.88Q76.60-14.24 76.20-11.60L76.20-11.60L89.80-11.60Q89.40-14.24 87.64-15.88L87.64-15.88Q85.76-17.60 83-17.60ZM88.64-22.80L85.36-22.80L83-24.96L80.64-22.80L77.36-22.80L81.28-27L84.76-27L88.64-22.80Z M100.60-20L103.60-20L103.60-16.88Q104.68-18.32 106.24-19.32Q107.80-20.32 109.80-20.32Q111.80-20.32 113.24-19.76Q114.68-19.20 115.76-18.08L115.76-18.08Q118.24-15.64 118.24-11.64L118.24-11.64L118.24 0L115.24 0L115.24-11.56Q115.24-14.32 113.68-15.96Q112.12-17.60 109.64-17.60L109.64-17.60Q107.12-17.60 105.36-15.92L105.36-15.92Q103.60-14.20 103.60-11.52L103.60-11.52L103.60 0L100.60 0L100.60-20Z M136.48-2.40L136.48-2.40Q138.40-2.40 139.88-3.48Q141.36-4.56 142.04-6.28L142.04-6.28L145.28-6.28Q144.36-3.32 141.92-1.52L141.92-1.52Q139.36 0.32 135.84 0.32L135.84 0.32Q131.44 0.32 128.68-2.68L128.68-2.68Q126-5.60 126-10L126-10Q126-14.40 128.68-17.32L128.68-17.32Q131.44-20.32 135.84-20.32L135.84-20.32Q139.36-20.32 141.92-18.48L141.92-18.48Q144.36-16.68 145.28-13.72L145.28-13.72L142.04-13.72Q141.36-15.44 139.88-16.52Q138.40-17.60 136.48-17.60Q134.56-17.60 133.22-17Q131.88-16.40 130.96-15.36L130.96-15.36Q129-13.20 129-10L129-10Q129-6.80 130.96-4.64L130.96-4.64Q132.96-2.40 136.48-2.40Z M153 0L153-20L156-20L156 0L153 0ZM152.88-27.28L156.12-27.28L156.12-23.36L152.88-23.36L152.88-27.28Z M180.80 0L180.80-3.20Q178.40 0.32 173.64 0.32L173.64 0.32Q169.32 0.32 166.60-2.68L166.60-2.68Q163.96-5.64 163.96-10L163.96-10Q163.96-14.36 166.60-17.32L166.60-17.32Q169.32-20.32 173.84-20.32Q178.36-20.32 180.80-16.76L180.80-16.76L180.80-20L183.80-20L183.80 0L180.80 0ZM174.04-2.40L174.04-2.40Q177.28-2.40 179.16-4.64L179.16-4.64Q180.96-6.76 180.96-10L180.96-10Q180.96-13.24 179.16-15.36L179.16-15.36Q177.28-17.60 174.04-17.60L174.04-17.60Q170.84-17.60 168.84-15.36L168.84-15.36Q166.96-13.24 166.96-10L166.96-10Q166.96-6.76 168.84-4.64L168.84-4.64Q170.84-2.40 174.04-2.40Z M214.44-2.40L214.44-2.40Q218.48-2.40 220.24-5.76L220.24-5.76L223.52-5.76Q222.48-3.04 220.22-1.36Q217.96 0.32 214.40 0.32L214.40 0.32Q209.88 0.32 207.04-2.68L207.04-2.68Q204.28-5.60 204.28-10L204.28-10Q204.28-14.44 206.92-17.32L206.92-17.32Q209.72-20.32 214.20-20.32L214.20-20.32Q218.68-20.32 221.48-17.32L221.48-17.32Q224.12-14.44 224.12-10L224.12-10L224.12-8.80L207.36-8.80Q207.68-6.04 209.56-4.24L209.56-4.24Q211.48-2.40 214.44-2.40ZM214.20-17.60L214.20-17.60Q211.44-17.60 209.56-15.88L209.56-15.88Q207.80-14.24 207.40-11.60L207.40-11.60L221.00-11.60Q220.60-14.24 218.84-15.88L218.84-15.88Q216.96-17.60 214.20-17.60Z M253.24-2.40L253.24-2.40Q257.28-2.40 259.04-5.76L259.04-5.76L262.32-5.76Q261.28-3.04 259.02-1.36Q256.76 0.32 253.20 0.32L253.20 0.32Q248.68 0.32 245.84-2.68L245.84-2.68Q243.08-5.60 243.08-10L243.08-10Q243.08-14.44 245.72-17.32L245.72-17.32Q248.52-20.32 253.00-20.32L253.00-20.32Q257.48-20.32 260.28-17.32L260.28-17.32Q262.92-14.44 262.92-10L262.92-10L262.92-8.80L246.16-8.80Q246.48-6.04 248.36-4.24L248.36-4.24Q250.28-2.40 253.24-2.40ZM253.00-17.60L253.00-17.60Q250.24-17.60 248.36-15.88L248.36-15.88Q246.60-14.24 246.20-11.60L246.20-11.60L259.80-11.60Q259.40-14.24 257.64-15.88L257.64-15.88Q255.76-17.60 253.00-17.60Z M273.60-28L273.60 0L270.60 0L270.60-28L273.60-28Z M291.72-2.40L291.72-2.40Q295.76-2.40 297.52-5.76L297.52-5.76L300.80-5.76Q299.76-3.04 297.50-1.36Q295.24 0.32 291.68 0.32L291.68 0.32Q287.16 0.32 284.32-2.68L284.32-2.68Q281.56-5.60 281.56-10L281.56-10Q281.56-14.44 284.20-17.32L284.20-17.32Q287-20.32 291.48-20.32L291.48-20.32Q295.96-20.32 298.76-17.32L298.76-17.32Q301.40-14.44 301.40-10L301.40-10L301.40-8.80L284.64-8.80Q284.96-6.04 286.84-4.24L286.84-4.24Q288.76-2.40 291.72-2.40ZM291.48-17.60L291.48-17.60Q288.72-17.60 286.84-15.88L286.84-15.88Q285.08-14.24 284.68-11.60L284.68-11.60L298.28-11.60Q297.88-14.24 296.12-15.88L296.12-15.88Q294.24-17.60 291.48-17.60Z M324.68-16.80L324.68-16.80L324.68-20L327.68-20L327.68-0.60Q327.68 3.72 325.22 5.98Q322.76 8.24 318.60 8.24Q314.44 8.24 312.10 6.64Q309.76 5.04 308.92 2.40L308.92 2.40L312.24 2.40Q313.52 5.52 318.08 5.52L318.08 5.52Q321.56 5.52 323.12 3.92Q324.68 2.32 324.68-0.80L324.68-0.80L324.68-3.56Q322.24 0 317.52 0L317.52 0Q313.20 0 310.48-2.96L310.48-2.96Q307.84-5.84 307.84-10.16L307.84-10.16Q307.84-14.48 310.48-17.36L310.48-17.36Q313.20-20.32 317.74-20.32Q322.28-20.32 324.68-16.80ZM317.92-2.72L317.92-2.72Q319.56-2.72 320.84-3.30Q322.12-3.88 323.04-4.88L323.04-4.88Q324.84-6.96 324.84-10.16L324.84-10.16Q324.84-13.36 323.04-15.44L323.04-15.44Q321.08-17.60 317.92-17.60L317.92-17.60Q314.68-17.60 312.72-15.44L312.72-15.44Q310.84-13.32 310.84-10.16L310.84-10.16Q310.84-7 312.72-4.88L312.72-4.88Q314.68-2.72 317.92-2.72Z M352.48 0L352.48-3.20Q350.08 0.32 345.32 0.32L345.32 0.32Q341.00 0.32 338.28-2.68L338.28-2.68Q335.64-5.64 335.64-10L335.64-10Q335.64-14.36 338.28-17.32L338.28-17.32Q341.00-20.32 345.52-20.32Q350.04-20.32 352.48-16.76L352.48-16.76L352.48-20L355.48-20L355.48 0L352.48 0ZM345.72-2.40L345.72-2.40Q348.96-2.40 350.84-4.64L350.84-4.64Q352.64-6.76 352.64-10L352.64-10Q352.64-13.24 350.84-15.36L350.84-15.36Q348.96-17.60 345.72-17.60L345.72-17.60Q342.52-17.60 340.52-15.36L340.52-15.36Q338.64-13.24 338.64-10L338.64-10Q338.64-6.76 340.52-4.64L340.52-4.64Q342.52-2.40 345.72-2.40ZM351-22.80L347.72-22.80L345.36-24.96L343.00-22.80L339.72-22.80L343.64-27L347.12-27L351-22.80Z M364.68-20L367.68-20L367.68-16.88Q368.76-18.32 370.32-19.32Q371.88-20.32 373.88-20.32Q375.88-20.32 377.32-19.76Q378.76-19.20 379.84-18.08L379.84-18.08Q382.32-15.64 382.32-11.64L382.32-11.64L382.32 0L379.32 0L379.32-11.56Q379.32-14.32 377.76-15.96Q376.20-17.60 373.72-17.60L373.72-17.60Q371.20-17.60 369.44-15.92L369.44-15.92Q367.68-14.20 367.68-11.52L367.68-11.52L367.68 0L364.68 0L364.68-20Z M400.56-2.40L400.56-2.40Q402.48-2.40 403.96-3.48Q405.44-4.56 406.12-6.28L406.12-6.28L409.36-6.28Q408.44-3.32 406-1.52L406-1.52Q403.44 0.32 399.92 0.32L399.92 0.32Q395.52 0.32 392.76-2.68L392.76-2.68Q390.08-5.60 390.08-10L390.08-10Q390.08-14.40 392.76-17.32L392.76-17.32Q395.52-20.32 399.92-20.32L399.92-20.32Q403.44-20.32 406-18.48L406-18.48Q408.44-16.68 409.36-13.72L409.36-13.72L406.12-13.72Q405.44-15.44 403.96-16.52Q402.48-17.60 400.56-17.60Q398.64-17.60 397.30-17Q395.96-16.40 395.04-15.36L395.04-15.36Q393.08-13.20 393.08-10L393.08-10Q393.08-6.80 395.04-4.64L395.04-4.64Q397.04-2.40 400.56-2.40Z M417.08 0L417.08-20L420.08-20L420.08 0L417.08 0ZM416.96-27.28L420.20-27.28L420.20-23.36L416.96-23.36L416.96-27.28Z M444.88 0L444.88-3.20Q442.48 0.32 437.72 0.32L437.72 0.32Q433.40 0.32 430.68-2.68L430.68-2.68Q428.04-5.64 428.04-10L428.04-10Q428.04-14.36 430.68-17.32L430.68-17.32Q433.40-20.32 437.92-20.32Q442.44-20.32 444.88-16.76L444.88-16.76L444.88-20L447.88-20L447.88 0L444.88 0ZM438.12-2.40L438.12-2.40Q441.36-2.40 443.24-4.64L443.24-4.64Q445.04-6.76 445.04-10L445.04-10Q445.04-13.24 443.24-15.36L443.24-15.36Q441.36-17.60 438.12-17.60L438.12-17.60Q434.92-17.60 432.92-15.36L432.92-15.36Q431.04-13.24 431.04-10L431.04-10Q431.04-6.76 432.92-4.64L432.92-4.64Q434.92-2.40 438.12-2.40Z M469.60 7.92L469.60-20L472.60-20L472.60 7.92L469.60 7.92ZM469.48-27.28L472.72-27.28L472.72-23.36L469.48-23.36L469.48-27.28Z M499.24 0L496.24 0L496.24-3.12Q495.16-1.68 493.60-0.68Q492.04 0.32 490.04 0.32Q488.04 0.32 486.60-0.24Q485.16-0.80 484.08-1.92L484.08-1.92Q481.60-4.36 481.60-8.36L481.60-8.36L481.60-20L484.60-20L484.60-8.44Q484.60-5.68 486.16-4.04Q487.72-2.40 490.20-2.40L490.20-2.40Q492.72-2.40 494.48-4.08L494.48-4.08Q496.24-5.80 496.24-8.48L496.24-8.48L496.24-20L499.24-20L499.24 0Z M508.44-20L511.44-20L511.44-16.88Q512.52-18.32 514.08-19.32Q515.64-20.32 517.64-20.32Q519.64-20.32 521.08-19.76Q522.52-19.20 523.60-18.08L523.60-18.08Q526.08-15.64 526.08-11.64L526.08-11.64L526.08 0L523.08 0L523.08-11.56Q523.08-14.32 521.52-15.96Q519.96-17.60 517.48-17.60L517.48-17.60Q514.96-17.60 513.20-15.92L513.20-15.92Q511.44-14.20 511.44-11.52L511.44-11.52L511.44 0L508.44 0L508.44-20Z M539.76 0L536.76 0L536.76-17.36L532.68-17.36L532.68-20L536.76-20L536.76-27.16L539.76-27.16L539.76-20L544.36-20L544.36-17.36L539.76-17.36L539.76 0Z M566.84 0L566.84-3.20Q564.44 0.32 559.68 0.32L559.68 0.32Q555.36 0.32 552.64-2.68L552.64-2.68Q550-5.64 550-10L550-10Q550-14.36 552.64-17.32L552.64-17.32Q555.36-20.32 559.88-20.32Q564.40-20.32 566.84-16.76L566.84-16.76L566.84-20L569.84-20L569.84 0L566.84 0ZM560.08-2.40L560.08-2.40Q563.32-2.40 565.20-4.64L565.20-4.64Q567-6.76 567-10L567-10Q567-13.24 565.20-15.36L565.20-15.36Q563.32-17.60 560.08-17.60L560.08-17.60Q556.88-17.60 554.88-15.36L554.88-15.36Q553-13.24 553-10L553-10Q553-6.76 554.88-4.64L554.88-4.64Q556.88-2.40 560.08-2.40Z M593.84-14.64L590.80-14.64Q590.40-17.76 585.78-17.76Q581.16-17.76 581.16-14.88L581.16-14.88Q581.16-13.68 582.14-13.06Q583.12-12.44 584.60-12.04Q586.08-11.64 587.82-11.30Q589.56-10.96 591.04-10.34Q592.52-9.72 593.50-8.64Q594.48-7.56 594.48-5.68L594.48-5.68Q594.48-2.76 592.28-1.22Q590.08 0.32 586.32 0.32L586.32 0.32Q582.32 0.32 579.96-1.68L579.96-1.68Q577.80-3.44 577.64-6.28L577.64-6.28L580.76-6.28Q581.04-3.52 583.88-2.56L583.88-2.56Q584.92-2.24 585.94-2.24Q586.96-2.24 587.84-2.36Q588.72-2.48 589.56-2.80L589.56-2.80Q591.48-3.56 591.48-5.40L591.48-5.40Q591.48-6.64 590.50-7.30Q589.52-7.96 588.04-8.38Q586.56-8.80 584.82-9.14Q583.08-9.48 581.60-10.08Q580.12-10.68 579.14-11.72Q578.16-12.76 578.16-14.60L578.16-14.60Q578.16-17.32 580.14-18.82Q582.12-20.32 586.00-20.32L586.00-20.32Q589.68-20.32 591.80-18.56L591.80-18.56Q593.56-17.08 593.84-14.64L593.84-14.64Z"/></g>
</svg>
</g><g opacity="1" transform="rotate(0 -33.2865 218.7032)">
<svg width="399.9064" height="24" x="-33.2865" y="218.7032" version="1.1" preserveAspectRatio="none" viewBox="2.4219 -28.4078 479.8633 28.798500000000004">
  <g transform="matrix(1 0 0 1 0 0)" class="companyName"><path id="id-D6z1nYkh16" d="M30.43-25.45L30.43 0L25.35 0L25.35-6.88L7.50-6.88L7.50 0L2.42 0L2.42-14.00Q2.42-17.07 3.48-19.65Q4.53-22.23 6.41-24.08Q8.28-25.94 10.84-26.97Q13.40-28.01 16.43-28.01L16.43-28.01L27.87-28.01Q28.40-28.01 28.87-27.81Q29.34-27.62 29.69-27.27Q30.04-26.91 30.23-26.45Q30.43-25.98 30.43-25.45L30.43-25.45ZM7.50-14.00L7.50-11.95L25.35-11.95L25.35-22.93L16.43-22.93Q16.19-22.93 15.44-22.86Q14.69-22.79 13.70-22.52Q12.71-22.25 11.62-21.68Q10.53-21.11 9.61-20.12Q8.69-19.12 8.10-17.63Q7.50-16.13 7.50-14.00L7.50-14.00Z M68.93-25.84L68.93 0L63.81 0L63.81-16.68L54.80-0.84Q54.47-0.23 53.88 0.08Q53.28 0.39 52.60 0.39L52.60 0.39Q51.93 0.39 51.36 0.08Q50.78-0.23 50.45-0.84L50.45-0.84L41.41-16.68L41.41 0L36.33 0L36.33-25.84Q36.33-26.72 36.85-27.40Q37.36-28.09 38.20-28.32L38.20-28.32Q38.61-28.42 39.02-28.39Q39.43-28.36 39.81-28.21Q40.20-28.07 40.51-27.80Q40.82-27.54 41.04-27.17L41.04-27.17L52.60-7.07L64.16-27.17Q64.61-27.91 65.40-28.22Q66.19-28.54 67.05-28.32L67.05-28.32Q67.87-28.09 68.40-27.40Q68.93-26.72 68.93-25.84L68.93-25.84Z M102.30-25.45L102.30 0L97.23 0L97.23-6.88L79.38-6.88L79.38 0L74.30 0L74.30-14.00Q74.30-17.07 75.35-19.65Q76.41-22.23 78.28-24.08Q80.16-25.94 82.71-26.97Q85.27-28.01 88.30-28.01L88.30-28.01L99.75-28.01Q100.27-28.01 100.74-27.81Q101.21-27.62 101.56-27.27Q101.91-26.91 102.11-26.45Q102.30-25.98 102.30-25.45L102.30-25.45ZM79.38-14.00L79.38-11.95L97.23-11.95L97.23-22.93L88.30-22.93Q88.07-22.93 87.31-22.86Q86.56-22.79 85.58-22.52Q84.59-22.25 83.50-21.68Q82.40-21.11 81.48-20.12Q80.57-19.12 79.97-17.63Q79.38-16.13 79.38-14.00L79.38-14.00Z M136.19-28.01L136.19-2.17Q136.19-1.62 135.99-1.15Q135.78-0.68 135.44-0.34Q135.10 0 134.63 0.20Q134.16 0.39 133.63 0.39L133.63 0.39Q133.16 0.39 132.69 0.21Q132.21 0.04 131.84-0.35L131.84-0.35L113.28-19.73L113.28 0L108.20 0L108.20-25.84Q108.20-26.62 108.64-27.26Q109.08-27.89 109.77-28.20L109.77-28.20Q110.49-28.50 111.25-28.35Q112.01-28.20 112.56-27.64L112.56-27.64L131.11-8.28L131.11-28.01L136.19-28.01Z M170.04-16.29L170.04-11.72Q170.04-9.16 169.15-7.01Q168.26-4.86 166.70-3.31Q165.14-1.76 162.99-0.88Q160.84 0 158.32 0L158.32 0L144.61 0Q144.06 0 143.59-0.20Q143.13-0.39 142.78-0.73Q142.44-1.07 142.25-1.54Q142.05-2.01 142.05-2.56L142.05-2.56L142.05-25.45Q142.05-25.98 142.25-26.45Q142.44-26.91 142.78-27.27Q143.13-27.62 143.59-27.81Q144.06-28.01 144.61-28.01L144.61-28.01L158.32-28.01Q160.84-28.01 162.99-27.13Q165.14-26.25 166.70-24.70Q168.26-23.14 169.15-20.99Q170.04-18.83 170.04-16.29L170.04-16.29ZM164.96-11.72L164.96-16.29Q164.96-17.77 164.48-19.00Q164.00-20.23 163.13-21.10Q162.25-21.97 161.03-22.45Q159.80-22.93 158.32-22.93L158.32-22.93L147.13-22.93L147.13-5.08L158.32-5.08Q159.80-5.08 161.03-5.56Q162.25-6.04 163.13-6.90Q164.00-7.77 164.48-8.99Q164.96-10.21 164.96-11.72L164.96-11.72Z M202.50-25.45L202.50 0L197.42 0L197.42-6.88L179.57-6.88L179.57 0L174.49 0L174.49-14.00Q174.49-17.07 175.55-19.65Q176.60-22.23 178.48-24.08Q180.35-25.94 182.91-26.97Q185.47-28.01 188.50-28.01L188.50-28.01L199.94-28.01Q200.47-28.01 200.94-27.81Q201.41-27.62 201.76-27.27Q202.11-26.91 202.30-26.45Q202.50-25.98 202.50-25.45L202.50-25.45ZM179.57-14.00L179.57-11.95L197.42-11.95L197.42-22.93L188.50-22.93Q188.26-22.93 187.51-22.86Q186.76-22.79 185.77-22.52Q184.79-22.25 183.69-21.68Q182.60-21.11 181.68-20.12Q180.76-19.12 180.17-17.63Q179.57-16.13 179.57-14.00L179.57-14.00Z M246.48-5.08L246.48 0L228.16 0Q227.46 0 226.65-0.17Q225.84-0.33 225.05-0.68Q224.26-1.04 223.54-1.59Q222.81-2.15 222.26-2.94Q221.70-3.73 221.37-4.78Q221.04-5.82 221.04-7.13L221.04-7.13L221.04-20.88Q221.04-21.58 221.20-22.39Q221.37-23.20 221.72-23.99Q222.07-24.79 222.64-25.51Q223.20-26.23 223.99-26.79Q224.79-27.34 225.82-27.68Q226.86-28.01 228.16-28.01L228.16-28.01L246.48-28.01L246.48-22.93L228.16-22.93Q227.17-22.93 226.64-22.40Q226.11-21.88 226.11-20.84L226.11-20.84L226.11-7.13Q226.11-6.15 226.65-5.62Q227.19-5.08 228.16-5.08L228.16-5.08L246.48-5.08Z M256.41-28.01L256.41-16.56L274.24-16.56L274.24-28.01L279.32-28.01L279.32 0L274.24 0L274.24-11.45L256.41-11.45L256.41 0L251.33 0L251.33-28.01L256.41-28.01Z M312.70-28.01L312.70-2.56Q312.70-2.01 312.50-1.54Q312.30-1.07 311.95-0.73Q311.60-0.39 311.13-0.20Q310.66 0 310.14 0L310.14 0L298.69 0Q297.07 0 295.41-0.35Q293.75-0.70 292.20-1.44Q290.64-2.17 289.28-3.30Q287.91-4.43 286.88-5.99Q285.86-7.54 285.27-9.54Q284.69-11.54 284.69-14.00L284.69-14.00L284.69-28.01L289.77-28.01L289.77-14.00Q289.77-11.86 290.36-10.37Q290.96-8.89 291.88-7.89Q292.79-6.89 293.89-6.33Q294.98-5.76 295.97-5.49Q296.95-5.21 297.71-5.15Q298.46-5.08 298.69-5.08L298.69-5.08L307.62-5.08L307.62-28.01L312.70-28.01Z M343.91-28.01L343.91-22.93L332.71-22.93L332.71 0L327.64 0L327.64-22.93L316.43-22.93L316.43-28.01L343.91-28.01Z M370.66-16.56L370.66-11.45L354.63-11.45L354.63-16.56L370.66-16.56ZM372.95-5.08L372.95 0L354.63 0Q353.57 0 352.32-0.37Q351.07-0.74 350.01-1.59Q348.95-2.44 348.23-3.80Q347.52-5.16 347.52-7.13L347.52-7.13L347.52-25.45Q347.52-25.98 347.71-26.45Q347.91-26.91 348.25-27.27Q348.59-27.62 349.06-27.81Q349.53-28.01 350.08-28.01L350.08-28.01L372.95-28.01L372.95-22.93L352.60-22.93L352.60-7.13Q352.60-6.13 353.13-5.61Q353.65-5.08 354.67-5.08L354.67-5.08L372.95-5.08Z M382.97-28.01L382.97 0L377.89 0L377.89-28.01L382.97-28.01Z M416.89-21.84L416.89-18.59Q416.89-16.86 416.46-15.49Q416.04-14.12 415.30-13.08Q414.57-12.03 413.61-11.29Q412.66-10.55 411.61-10.07Q410.57-9.59 409.50-9.38Q408.44-9.16 407.50-9.16L407.50-9.16L418.11 0L410.25 0L399.67-9.16L396.02-9.16L396.02-14.24L407.50-14.24Q408.46-14.32 409.25-14.64Q410.04-14.96 410.62-15.51Q411.19-16.05 411.50-16.83Q411.82-17.60 411.82-18.59L411.82-18.59L411.82-21.80Q411.82-22.23 411.71-22.45Q411.60-22.68 411.44-22.78Q411.27-22.89 411.08-22.91Q410.90-22.93 410.74-22.93L410.74-22.93L393.98-22.93L393.98 0L388.91 0L388.91-25.45Q388.91-25.98 389.10-26.45Q389.30-26.91 389.64-27.27Q389.98-27.62 390.45-27.81Q390.92-28.01 391.46-28.01L391.46-28.01L410.74-28.01Q412.44-28.01 413.61-27.39Q414.79-26.78 415.52-25.85Q416.25-24.92 416.57-23.85Q416.89-22.77 416.89-21.84L416.89-21.84Z M449.47-25.45L449.47 0L444.39 0L444.39-6.88L426.54-6.88L426.54 0L421.46 0L421.46-14.00Q421.46-17.07 422.52-19.65Q423.57-22.23 425.45-24.08Q427.32-25.94 429.88-26.97Q432.44-28.01 435.47-28.01L435.47-28.01L446.91-28.01Q447.44-28.01 447.91-27.81Q448.38-27.62 448.73-27.27Q449.08-26.91 449.28-26.45Q449.47-25.98 449.47-25.45L449.47-25.45ZM426.54-14.00L426.54-11.95L444.39-11.95L444.39-22.93L435.47-22.93Q435.23-22.93 434.48-22.86Q433.73-22.79 432.74-22.52Q431.76-22.25 430.66-21.68Q429.57-21.11 428.65-20.12Q427.73-19.12 427.14-17.63Q426.54-16.13 426.54-14.00L426.54-14.00Z M482.29-8.24L482.29-8.24Q482.29-6.74 481.90-5.54Q481.52-4.34 480.90-3.42Q480.27-2.50 479.43-1.86Q478.59-1.21 477.70-0.80Q476.80-0.39 475.87-0.20Q474.94 0 474.12 0L474.12 0L454.53 0L454.53-5.08L474.12-5.08Q475.59-5.08 476.40-5.94Q477.21-6.80 477.21-8.24L477.21-8.24Q477.21-8.95 476.99-9.53Q476.78-10.12 476.38-10.55Q475.98-10.98 475.40-11.21Q474.82-11.45 474.12-11.45L474.12-11.45L462.44-11.45Q461.21-11.45 459.79-11.88Q458.36-12.32 457.14-13.30Q455.92-14.28 455.11-15.86Q454.30-17.44 454.30-19.73L454.30-19.73Q454.30-22.01 455.11-23.58Q455.92-25.16 457.14-26.14Q458.36-27.13 459.79-27.57Q461.21-28.01 462.44-28.01L462.44-28.01L479.73-28.01L479.73-22.93L462.44-22.93Q461.00-22.93 460.19-22.05Q459.38-21.17 459.38-19.73L459.38-19.73Q459.38-18.26 460.19-17.41Q461.00-16.56 462.44-16.56L462.44-16.56L474.12-16.56L474.16-16.56Q474.98-16.54 475.90-16.34Q476.82-16.13 477.72-15.70Q478.63-15.27 479.45-14.62Q480.27-13.96 480.91-13.05Q481.54-12.13 481.91-10.94Q482.29-9.75 482.29-8.24Z"/></g>
</svg>
</g><g opacity="1" transform="rotate(0 66.6901 -69.7203)">
<svg width="199.9532" height="258.4235" x="66.6901" y="-69.7203" version="1.1" preserveAspectRatio="none" viewBox="41.849998474121094 24.949996948242188 116.10001373291016 150.0500030517578">
  <g transform="matrix(1 0 0 1 0 0)"><g><path d="M142.2 100l15.3-15.4c.6-.6.6-1.4 0-2l-56.6-57.2c-.6-.6-1.4-.6-2 0L42.3 82.6c-.6.6-.6 1.4 0 2L57.6 100l-15.3 15.4c-.6.6-.6 1.4 0 2l56.6 57.2c.3.3.6.4 1 .4s.7-.1 1-.4l56.6-57.2c.6-.6.6-1.4 0-2L142.2 100zm-42.3 71.6l-54.6-55.2L59.6 102l39.8 40c.3.3.6.4 1 .4s.7-.1 1-.4l11.6-11.7h.1c.4-.4.6-1 .3-1.6 0 0 0-.1-.1-.1 0-.1-.1-.1-.1-.3L72 85.7c-.6-.6-1.4-.6-2 0s-.6 1.4 0 2l40.2 41.6-9.8 9.8-55.1-55.5 54.6-55.2 54.6 55.2L140.2 98l-39.3-39.8c-.6-.6-1.4-.6-2 0L86.5 70.4c-.6.6-.6 1.4 0 2l41.2 42.6c.6.6 1.4.6 2 0s.6-1.4 0-2L89.4 71.6l10.5-10.3 39.3 39.8 15.3 15.4-54.6 55.1z" data-color="1" class="icon1"></path></g></g>
</svg>
</g></svg></svg>